<svg enable-background="new 0 0 150 150" viewBox="0 0 150 150" xmlns="http://www.w3.org/2000/svg"><path d="m6.97 89.02c0-10.54 0-15.82 0-26.36 3.81-.34 5.71-.51 9.52-.85 3.6 3.74 5.39 5.71 8.99 9.85 3.58-4.38 5.37-6.67 8.94-11.46 3.77-.34 5.65-.51 9.42-.85v32.06c-3.96-.26-5.94-.38-9.91-.64 0-3.98 0-5.97 0-9.95 0-2.4.05-5.06.1-7.17-.04-.02-.06-.02-.1-.04-1.44 1.97-3.03 3.94-4.57 5.83-1.65 2-2.48 2.97-4.13 4.89-1.67-2.02-2.51-3.01-4.18-4.95-1.59-1.82-3.12-3.64-4.57-5.38-.04.02-.06.02-.1.04.05 1.92.1 4.34.1 6.53v9.07c-3.8-.25-5.7-.38-9.51-.62zm42.34-30.17c3.96-.36 5.94-.53 9.9-.89v34.43c-3.96-.26-5.94-.38-9.91-.64.01-10.96.01-21.93.01-32.9zm15.38 33.9c0-11.76 0-23.52 0-35.27 3.81-.34 5.71-.51 9.52-.85 3.6 5.04 5.39 8.35 8.99 13.67 3.58-5.09 5.36-7.53 8.94-12.21 3.77.34 5.65.51 9.42.85v32.81c-3.96.26-5.94.39-9.9.65 0-4.48 0-6.72 0-11.2 0-2.71.05-5.7.1-8.07-.04-.02-.06-.03-.1-.05-1.44 2.15-3.03 4.39-4.57 6.63-1.65 2.38-2.48 3.59-4.13 6.05-1.67-2.35-2.51-3.55-4.18-5.98-1.59-2.3-3.12-4.78-4.57-7.08-.04.02-.06.03-.1.05.05 2.54.1 5.73.1 8.63v11.98c-3.81-.24-5.71-.37-9.52-.61zm59.73-32.21c10.48.97 18.6 7.69 18.6 15.3s-8.12 14.13-18.6 14.85c-10.48.71-18.6-6.01-18.61-15.29.01-9.29 8.13-15.83 18.61-14.86zm.01 22.67c4.9-.14 8.7-3.45 8.7-7.49 0-4.05-3.8-7.45-8.7-7.7-4.9-.26-8.7 3.05-8.7 7.49-.01 4.44 3.79 7.84 8.7 7.7z" fill="#231f20"/></svg>